<svg xmlns="http://www.w3.org/2000/svg" width="1024" height="1024" viewBox="0 0 100 100">
  <path d="M50 20 C60 20 70 30 70 40 C70 50 60 60 50 60 C40 60 30 50 30 40 C30 30 40 20 50 20" fill="#d946ef" />
  <path d="M50 80 C40 80 30 70 30 60 C30 50 40 40 50 40 C60 40 70 50 70 60 C70 70 60 80 50 80" fill="#d946ef" />
  <path d="M20 50 C20 40 30 30 40 30 C50 30 60 40 60 50 C60 60 50 70 40 70 C30 70 20 60 20 50" fill="#d946ef" />
  <path d="M80 50 C80 60 70 70 60 70 C50 70 40 60 40 50 C40 40 50 30 60 30 C70 30 80 40 80 50" fill="#d946ef" />
  <circle cx="50" cy="50" r="12" fill="#fde047" />
</svg>
