<svg xmlns="http://www.w3.org/2000/svg" width="120" height="120" viewBox="0 0 120 120">
  <g fill="black" opacity="0.25">
    <polygon points="-18.7,-26.3 -20.5,-17.5 -29.3,-15.7 -27.5,-24.5"/>
    <polygon points="-3.7,-0.7 -12.5,-2.5 -14.3,-11.3 -5.5,-9.5"/>
    <polygon points="-18.7,33.7 -20.5,42.5 -29.3,44.3 -27.5,35.5"/>
    <polygon points="-3.7,59.3 -12.5,57.5 -14.3,48.7 -5.5,50.5"/>
    <polygon points="-18.7,93.7 -20.5,102.5 -29.3,104.3 -27.5,95.5"/>
    <polygon points="-3.7,119.3 -12.5,117.5 -14.3,108.7 -5.5,110.5"/>
    <polygon points="11.3,3.7 9.5,12.5 0.7,14.3 2.5,5.5"/>
    <polygon points="26.3,29.3 17.5,27.5 15.7,18.7 24.5,20.5"/>
    <polygon points="11.3,63.7 9.5,72.5 0.7,74.3 2.5,65.5"/>
    <polygon points="26.3,89.3 17.5,87.5 15.7,78.7 24.5,80.5"/>
    <polygon points="11.3,123.7 9.5,132.5 0.7,134.3 2.5,125.5"/>
    <polygon points="26.3,149.3 17.5,147.5 15.7,138.7 24.5,140.5"/>
    <polygon points="41.3,-26.3 39.5,-17.5 30.7,-15.7 32.5,-24.5"/>
    <polygon points="56.3,-0.7 47.5,-2.5 45.7,-11.3 54.5,-9.5"/>
    <polygon points="41.3,33.7 39.5,42.5 30.7,44.3 32.5,35.5"/>
    <polygon points="56.3,59.3 47.5,57.5 45.7,48.7 54.5,50.5"/>
    <polygon points="41.3,93.7 39.5,102.5 30.7,104.3 32.5,95.5"/>
    <polygon points="56.3,119.3 47.5,117.5 45.7,108.7 54.5,110.5"/>
    <polygon points="71.3,3.7 69.5,12.5 60.7,14.3 62.5,5.5"/>
    <polygon points="86.3,29.3 77.5,27.5 75.7,18.7 84.5,20.5"/>
    <polygon points="71.3,63.7 69.5,72.5 60.7,74.3 62.5,65.5"/>
    <polygon points="86.3,89.3 77.5,87.5 75.7,78.7 84.5,80.5"/>
    <polygon points="71.3,123.7 69.5,132.5 60.7,134.3 62.5,125.5"/>
    <polygon points="86.3,149.3 77.5,147.5 75.7,138.7 84.5,140.5"/>
    <polygon points="101.3,-26.3 99.5,-17.5 90.7,-15.7 92.5,-24.5"/>
    <polygon points="116.3,-0.7 107.5,-2.5 105.7,-11.3 114.5,-9.5"/>
    <polygon points="101.3,33.7 99.5,42.5 90.7,44.3 92.5,35.5"/>
    <polygon points="116.3,59.3 107.5,57.5 105.7,48.7 114.5,50.5"/>
    <polygon points="101.3,93.7 99.5,102.5 90.7,104.3 92.5,95.5"/>
    <polygon points="116.3,119.3 107.5,117.5 105.7,108.7 114.5,110.5"/>
    <polygon points="131.3,3.7 129.5,12.5 120.7,14.3 122.5,5.5"/>
    <polygon points="146.3,29.3 137.5,27.5 135.7,18.7 144.5,20.5"/>
    <polygon points="131.3,63.7 129.5,72.5 120.7,74.3 122.5,65.5"/>
    <polygon points="146.3,89.3 137.5,87.5 135.7,78.7 144.5,80.5"/>
    <polygon points="131.3,123.7 129.5,132.5 120.7,134.3 122.5,125.5"/>
    <polygon points="146.3,149.3 137.5,147.5 135.7,138.7 144.5,140.5"/>
  </g>
</svg>
