<svg xmlns="http://www.w3.org/2000/svg" width="120" height="120" viewBox="0 0 120 120">
  <g fill="black" opacity="0.12">
    <circle cx="80.2" cy="16.9" r="0.8"/>
    <circle cx="15.1" cy="62.7" r="0.8"/>
    <circle cx="20.2" cy="31.5" r="0.8"/>
    <circle cx="86.9" cy="61.6" r="0.8"/>
    <circle cx="20.8" cy="91.4" r="0.8"/>
    <circle cx="28.2" cy="30.9" r="0.8"/>
    <circle cx="60.7" cy="38.4" r="0.8"/>
    <circle cx="45.7" cy="31.2" r="0.8"/>
    <circle cx="62.1" cy="4.2" r="0.8"/>
    <circle cx="97.7" cy="69.3" r="0.8"/>
    <circle cx="47.7" cy="18.3" r="0.8"/>
    <circle cx="10.8" cy="84.6" r="0.8"/>
    <circle cx="97.9" cy="64.8" r="0.8"/>
    <circle cx="5.3" cy="85.3" r="0.8"/>
    <circle cx="17.7" cy="108.7" r="0.8"/>
    <circle cx="83.1" cy="62.0" r="0.8"/>
    <circle cx="22.4" cy="5.0" r="0.8"/>
    <circle cx="37.0" cy="70.0" r="0.8"/>
    <circle cx="98.5" cy="0.5" r="0.8"/>
    <circle cx="64.3" cy="96.6" r="0.8"/>
    <circle cx="89.8" cy="46.1" r="0.8"/>
    <circle cx="17.9" cy="3.2" r="0.8"/>
    <circle cx="6.1" cy="93.8" r="0.8"/>
    <circle cx="75.2" cy="13.8" r="0.8"/>
    <circle cx="30.0" cy="92.7" r="0.8"/>
    <circle cx="34.8" cy="77.8" r="0.8"/>
    <circle cx="17.2" cy="5.3" r="0.8"/>
    <circle cx="72.5" cy="61.9" r="0.8"/>
    <circle cx="6.1" cy="50.4" r="0.8"/>
    <circle cx="84.8" cy="75.4" r="0.8"/>
    <circle cx="26.2" cy="1.6" r="0.8"/>
    <circle cx="43.8" cy="32.1" r="0.8"/>
    <circle cx="8.2" cy="86.2" r="0.8"/>
    <circle cx="8.5" cy="55.7" r="0.8"/>
    <circle cx="1.4" cy="95.7" r="0.8"/>
    <circle cx="52.7" cy="61.6" r="0.8"/>
    <circle cx="60.0" cy="1.1" r="0.8"/>
    <circle cx="99.5" cy="1.5" r="0.8"/>
    <circle cx="0.4" cy="7.7" r="0.8"/>
    <circle cx="78.5" cy="4.1" r="0.8"/>
    <circle cx="109.6" cy="111.5" r="0.8"/>
    <circle cx="55.3" cy="45.0" r="0.8"/>
    <circle cx="74.0" cy="5.3" r="0.8"/>
    <circle cx="44.7" cy="17.0" r="0.8"/>
    <circle cx="52.4" cy="95.1" r="0.8"/>
    <circle cx="63.9" cy="48.1" r="0.8"/>
    <circle cx="35.7" cy="108.9" r="0.8"/>
    <circle cx="70.4" cy="88.2" r="0.8"/>
    <circle cx="2.3" cy="105.8" r="0.8"/>
    <circle cx="114.9" cy="39.9" r="0.8"/>
    <circle cx="85.3" cy="19.5" r="0.8"/>
    <circle cx="12.4" cy="54.3" r="0.8"/>
    <circle cx="40.0" cy="93.1" r="0.8"/>
    <circle cx="17.8" cy="16.2" r="0.8"/>
    <circle cx="25.9" cy="71.0" r="0.8"/>
    <circle cx="61.5" cy="118.4" r="0.8"/>
    <circle cx="91.9" cy="80.6" r="0.8"/>
    <circle cx="85.8" cy="34.7" r="0.8"/>
    <circle cx="66.2" cy="118.8" r="0.8"/>
    <circle cx="78.1" cy="2.9" r="0.8"/>
    <circle cx="41.4" cy="111.5" r="0.8"/>
    <circle cx="3.3" cy="26.4" r="0.8"/>
    <circle cx="31.9" cy="4.6" r="0.8"/>
    <circle cx="25.9" cy="71.1" r="0.8"/>
    <circle cx="50.7" cy="11.2" r="0.8"/>
    <circle cx="119.2" cy="14.6" r="0.8"/>
    <circle cx="12.7" cy="38.6" r="0.8"/>
    <circle cx="38.9" cy="90.1" r="0.8"/>
    <circle cx="99.1" cy="1.1" r="0.8"/>
    <circle cx="5.1" cy="100.9" r="0.8"/>
    <circle cx="107.5" cy="28.6" r="0.8"/>
    <circle cx="111.1" cy="101.4" r="0.8"/>
    <circle cx="33.5" cy="65.4" r="0.8"/>
    <circle cx="76.1" cy="75.0" r="0.8"/>
    <circle cx="23.1" cy="35.7" r="0.8"/>
    <circle cx="22.0" cy="3.6" r="0.8"/>
    <circle cx="27.7" cy="112.0" r="0.8"/>
    <circle cx="118.5" cy="93.8" r="0.8"/>
    <circle cx="16.2" cy="106.0" r="0.8"/>
    <circle cx="22.4" cy="35.4" r="0.8"/>
    <circle cx="67.2" cy="66.7" r="0.8"/>
    <circle cx="85.5" cy="14.6" r="0.8"/>
    <circle cx="71.8" cy="47.0" r="0.8"/>
    <circle cx="105.7" cy="53.4" r="0.8"/>
    <circle cx="41.8" cy="115.7" r="0.8"/>
    <circle cx="55.6" cy="65.2" r="0.8"/>
    <circle cx="113.7" cy="97.2" r="0.8"/>
    <circle cx="15.4" cy="12.9" r="0.8"/>
    <circle cx="0.3" cy="21.8" r="0.8"/>
    <circle cx="112.8" cy="86.4" r="0.8"/>
    <circle cx="48.5" cy="70.9" r="0.8"/>
    <circle cx="48.0" cy="15.0" r="0.8"/>
    <circle cx="109.3" cy="115.7" r="0.8"/>
    <circle cx="106.9" cy="20.7" r="0.8"/>
    <circle cx="40.1" cy="65.1" r="0.8"/>
    <circle cx="73.9" cy="113.1" r="0.8"/>
    <circle cx="98.7" cy="89.7" r="0.8"/>
    <circle cx="33.7" cy="40.8" r="0.8"/>
    <circle cx="63.1" cy="96.5" r="0.8"/>
    <circle cx="29.7" cy="106.6" r="0.8"/>
    <circle cx="79.7" cy="22.7" r="0.8"/>
    <circle cx="33.3" cy="27.4" r="0.8"/>
    <circle cx="100.0" cy="76.8" r="0.8"/>
    <circle cx="9.8" cy="50.5" r="0.8"/>
    <circle cx="96.6" cy="105.6" r="0.8"/>
    <circle cx="93.5" cy="114.4" r="0.8"/>
    <circle cx="113.2" cy="56.0" r="0.8"/>
    <circle cx="106.9" cy="116.3" r="0.8"/>
    <circle cx="18.7" cy="70.5" r="0.8"/>
    <circle cx="25.3" cy="76.1" r="0.8"/>
    <circle cx="60.1" cy="85.0" r="0.8"/>
    <circle cx="13.3" cy="96.7" r="0.8"/>
    <circle cx="41.7" cy="62.5" r="0.8"/>
    <circle cx="86.5" cy="24.1" r="0.8"/>
    <circle cx="63.6" cy="94.6" r="0.8"/>
    <circle cx="69.8" cy="23.8" r="0.8"/>
    <circle cx="112.2" cy="6.3" r="0.8"/>
    <circle cx="6.7" cy="25.7" r="0.8"/>
    <circle cx="37.6" cy="20.6" r="0.8"/>
    <circle cx="35.0" cy="32.5" r="0.8"/>
    <circle cx="105.8" cy="56.4" r="0.8"/>
    <circle cx="44.1" cy="54.5" r="0.8"/>
    <circle cx="91.6" cy="79.5" r="0.8"/>
    <circle cx="119.9" cy="42.7" r="0.8"/>
    <circle cx="102.8" cy="37.4" r="0.8"/>
    <circle cx="22.0" cy="112.6" r="0.8"/>
    <circle cx="71.2" cy="73.5" r="0.8"/>
    <circle cx="46.5" cy="114.7" r="0.8"/>
    <circle cx="9.4" cy="56.5" r="0.8"/>
    <circle cx="105.7" cy="37.5" r="0.8"/>
    <circle cx="110.3" cy="105.8" r="0.8"/>
    <circle cx="106.9" cy="2.0" r="0.8"/>
    <circle cx="35.8" cy="69.6" r="0.8"/>
    <circle cx="2.2" cy="106.9" r="0.8"/>
    <circle cx="49.3" cy="81.2" r="0.8"/>
    <circle cx="78.7" cy="118.2" r="0.8"/>
    <circle cx="35.5" cy="112.9" r="0.8"/>
    <circle cx="90.3" cy="3.7" r="0.8"/>
    <circle cx="40.9" cy="78.9" r="0.8"/>
    <circle cx="5.1" cy="82.2" r="0.8"/>
    <circle cx="62.6" cy="43.8" r="0.8"/>
    <circle cx="41.3" cy="26.2" r="0.8"/>
    <circle cx="72.6" cy="77.2" r="0.8"/>
    <circle cx="72.7" cy="38.6" r="0.8"/>
    <circle cx="79.8" cy="11.9" r="0.8"/>
    <circle cx="16.3" cy="101.1" r="0.8"/>
    <circle cx="34.9" cy="117.5" r="0.8"/>
    <circle cx="42.2" cy="0.1" r="0.8"/>
    <circle cx="69.5" cy="42.1" r="0.8"/>
    <circle cx="18.7" cy="22.0" r="0.8"/>
    <circle cx="77.3" cy="13.0" r="0.8"/>
    <circle cx="113.4" cy="21.6" r="0.8"/>
    <circle cx="78.7" cy="23.9" r="0.8"/>
    <circle cx="77.0" cy="78.3" r="0.8"/>
    <circle cx="103.3" cy="42.7" r="0.8"/>
    <circle cx="73.8" cy="50.6" r="0.8"/>
    <circle cx="51.4" cy="23.4" r="0.8"/>
    <circle cx="94.9" cy="66.5" r="0.8"/>
    <circle cx="64.5" cy="80.7" r="0.8"/>
    <circle cx="49.4" cy="78.6" r="0.8"/>
    <circle cx="117.0" cy="83.6" r="0.8"/>
    <circle cx="27.1" cy="37.4" r="0.8"/>
    <circle cx="64.8" cy="97.6" r="0.8"/>
    <circle cx="83.3" cy="38.1" r="0.8"/>
    <circle cx="70.7" cy="90.2" r="0.8"/>
    <circle cx="54.2" cy="118.8" r="0.8"/>
    <circle cx="60.2" cy="103.1" r="0.8"/>
    <circle cx="5.0" cy="49.6" r="0.8"/>
    <circle cx="50.4" cy="19.6" r="0.8"/>
    <circle cx="67.5" cy="48.8" r="0.8"/>
    <circle cx="0.2" cy="114.4" r="0.8"/>
    <circle cx="55.4" cy="37.1" r="0.8"/>
    <circle cx="58.1" cy="85.8" r="0.8"/>
    <circle cx="49.7" cy="11.5" r="0.8"/>
    <circle cx="22.6" cy="95.6" r="0.8"/>
    <circle cx="55.6" cy="108.9" r="0.8"/>
    <circle cx="112.8" cy="60.1" r="0.8"/>
    <circle cx="25.0" cy="113.7" r="0.8"/>
    <circle cx="106.0" cy="76.0" r="0.8"/>
    <circle cx="76.8" cy="101.1" r="0.8"/>
  </g>
</svg>
