<svg xmlns="http://www.w3.org/2000/svg" width="120" height="120" viewBox="0 0 120 120">
  <g fill="black" opacity="0.12" transform="rotate(-30)">
    <rect x="-120.0" y="-120.0" width="30.0" height="8.0"/>
    <rect x="-120.0" y="-60.0" width="30.0" height="8.0"/>
    <rect x="-120.0" y="0.0" width="30.0" height="8.0"/>
    <rect x="-120.0" y="60.0" width="30.0" height="8.0"/>
    <rect x="-120.0" y="120.0" width="30.0" height="8.0"/>
    <rect x="-120.0" y="180.0" width="30.0" height="8.0"/>
    <rect x="-100.0" y="-80.0" width="30.0" height="8.0"/>
    <rect x="-100.0" y="-20.0" width="30.0" height="8.0"/>
    <rect x="-100.0" y="40.0" width="30.0" height="8.0"/>
    <rect x="-100.0" y="100.0" width="30.0" height="8.0"/>
    <rect x="-100.0" y="160.0" width="30.0" height="8.0"/>
    <rect x="-100.0" y="220.0" width="30.0" height="8.0"/>
    <rect x="-80.0" y="-100.0" width="30.0" height="8.0"/>
    <rect x="-80.0" y="-40.0" width="30.0" height="8.0"/>
    <rect x="-80.0" y="20.0" width="30.0" height="8.0"/>
    <rect x="-80.0" y="80.0" width="30.0" height="8.0"/>
    <rect x="-80.0" y="140.0" width="30.0" height="8.0"/>
    <rect x="-80.0" y="200.0" width="30.0" height="8.0"/>
    <rect x="-60.0" y="-120.0" width="30.0" height="8.0"/>
    <rect x="-60.0" y="-60.0" width="30.0" height="8.0"/>
    <rect x="-60.0" y="0.0" width="30.0" height="8.0"/>
    <rect x="-60.0" y="60.0" width="30.0" height="8.0"/>
    <rect x="-60.0" y="120.0" width="30.0" height="8.0"/>
    <rect x="-60.0" y="180.0" width="30.0" height="8.0"/>
    <rect x="-40.0" y="-80.0" width="30.0" height="8.0"/>
    <rect x="-40.0" y="-20.0" width="30.0" height="8.0"/>
    <rect x="-40.0" y="40.0" width="30.0" height="8.0"/>
    <rect x="-40.0" y="100.0" width="30.0" height="8.0"/>
    <rect x="-40.0" y="160.0" width="30.0" height="8.0"/>
    <rect x="-40.0" y="220.0" width="30.0" height="8.0"/>
    <rect x="-20.0" y="-100.0" width="30.0" height="8.0"/>
    <rect x="-20.0" y="-40.0" width="30.0" height="8.0"/>
    <rect x="-20.0" y="20.0" width="30.0" height="8.0"/>
    <rect x="-20.0" y="80.0" width="30.0" height="8.0"/>
    <rect x="-20.0" y="140.0" width="30.0" height="8.0"/>
    <rect x="-20.0" y="200.0" width="30.0" height="8.0"/>
    <rect x="0.0" y="-120.0" width="30.0" height="8.0"/>
    <rect x="0.0" y="-60.0" width="30.0" height="8.0"/>
    <rect x="0.0" y="0.0" width="30.0" height="8.0"/>
    <rect x="0.0" y="60.0" width="30.0" height="8.0"/>
    <rect x="0.0" y="120.0" width="30.0" height="8.0"/>
    <rect x="0.0" y="180.0" width="30.0" height="8.0"/>
    <rect x="20.0" y="-80.0" width="30.0" height="8.0"/>
    <rect x="20.0" y="-20.0" width="30.0" height="8.0"/>
    <rect x="20.0" y="40.0" width="30.0" height="8.0"/>
    <rect x="20.0" y="100.0" width="30.0" height="8.0"/>
    <rect x="20.0" y="160.0" width="30.0" height="8.0"/>
    <rect x="20.0" y="220.0" width="30.0" height="8.0"/>
    <rect x="40.0" y="-100.0" width="30.0" height="8.0"/>
    <rect x="40.0" y="-40.0" width="30.0" height="8.0"/>
    <rect x="40.0" y="20.0" width="30.0" height="8.0"/>
    <rect x="40.0" y="80.0" width="30.0" height="8.0"/>
    <rect x="40.0" y="140.0" width="30.0" height="8.0"/>
    <rect x="40.0" y="200.0" width="30.0" height="8.0"/>
    <rect x="60.0" y="-120.0" width="30.0" height="8.0"/>
    <rect x="60.0" y="-60.0" width="30.0" height="8.0"/>
    <rect x="60.0" y="0.0" width="30.0" height="8.0"/>
    <rect x="60.0" y="60.0" width="30.0" height="8.0"/>
    <rect x="60.0" y="120.0" width="30.0" height="8.0"/>
    <rect x="60.0" y="180.0" width="30.0" height="8.0"/>
    <rect x="80.0" y="-80.0" width="30.0" height="8.0"/>
    <rect x="80.0" y="-20.0" width="30.0" height="8.0"/>
    <rect x="80.0" y="40.0" width="30.0" height="8.0"/>
    <rect x="80.0" y="100.0" width="30.0" height="8.0"/>
    <rect x="80.0" y="160.0" width="30.0" height="8.0"/>
    <rect x="80.0" y="220.0" width="30.0" height="8.0"/>
    <rect x="100.0" y="-100.0" width="30.0" height="8.0"/>
    <rect x="100.0" y="-40.0" width="30.0" height="8.0"/>
    <rect x="100.0" y="20.0" width="30.0" height="8.0"/>
    <rect x="100.0" y="80.0" width="30.0" height="8.0"/>
    <rect x="100.0" y="140.0" width="30.0" height="8.0"/>
    <rect x="100.0" y="200.0" width="30.0" height="8.0"/>
    <rect x="120.0" y="-120.0" width="30.0" height="8.0"/>
    <rect x="120.0" y="-60.0" width="30.0" height="8.0"/>
    <rect x="120.0" y="0.0" width="30.0" height="8.0"/>
    <rect x="120.0" y="60.0" width="30.0" height="8.0"/>
    <rect x="120.0" y="120.0" width="30.0" height="8.0"/>
    <rect x="120.0" y="180.0" width="30.0" height="8.0"/>
    <rect x="140.0" y="-80.0" width="30.0" height="8.0"/>
    <rect x="140.0" y="-20.0" width="30.0" height="8.0"/>
    <rect x="140.0" y="40.0" width="30.0" height="8.0"/>
    <rect x="140.0" y="100.0" width="30.0" height="8.0"/>
    <rect x="140.0" y="160.0" width="30.0" height="8.0"/>
    <rect x="140.0" y="220.0" width="30.0" height="8.0"/>
    <rect x="160.0" y="-100.0" width="30.0" height="8.0"/>
    <rect x="160.0" y="-40.0" width="30.0" height="8.0"/>
    <rect x="160.0" y="20.0" width="30.0" height="8.0"/>
    <rect x="160.0" y="80.0" width="30.0" height="8.0"/>
    <rect x="160.0" y="140.0" width="30.0" height="8.0"/>
    <rect x="160.0" y="200.0" width="30.0" height="8.0"/>
    <rect x="180.0" y="-120.0" width="30.0" height="8.0"/>
    <rect x="180.0" y="-60.0" width="30.0" height="8.0"/>
    <rect x="180.0" y="0.0" width="30.0" height="8.0"/>
    <rect x="180.0" y="60.0" width="30.0" height="8.0"/>
    <rect x="180.0" y="120.0" width="30.0" height="8.0"/>
    <rect x="180.0" y="180.0" width="30.0" height="8.0"/>
    <rect x="200.0" y="-80.0" width="30.0" height="8.0"/>
    <rect x="200.0" y="-20.0" width="30.0" height="8.0"/>
    <rect x="200.0" y="40.0" width="30.0" height="8.0"/>
    <rect x="200.0" y="100.0" width="30.0" height="8.0"/>
    <rect x="200.0" y="160.0" width="30.0" height="8.0"/>
    <rect x="200.0" y="220.0" width="30.0" height="8.0"/>
    <rect x="220.0" y="-100.0" width="30.0" height="8.0"/>
    <rect x="220.0" y="-40.0" width="30.0" height="8.0"/>
    <rect x="220.0" y="20.0" width="30.0" height="8.0"/>
    <rect x="220.0" y="80.0" width="30.0" height="8.0"/>
    <rect x="220.0" y="140.0" width="30.0" height="8.0"/>
    <rect x="220.0" y="200.0" width="30.0" height="8.0"/>
  </g>
</svg>
