<svg xmlns="http://www.w3.org/2000/svg" width="120" height="120" viewBox="0 0 120 120">
  <g fill="white" opacity="0.12">
    <rect x="-24.0" y="-22.0" width="12.0" height="2"/>
    <rect x="-22.0" y="-12.0" width="2" height="12.0"/>
    <rect x="-24.0" y="2.0" width="12.0" height="2"/>
    <rect x="-22.0" y="12.0" width="2" height="12.0"/>
    <rect x="-24.0" y="26.0" width="12.0" height="2"/>
    <rect x="-22.0" y="36.0" width="2" height="12.0"/>
    <rect x="-24.0" y="50.0" width="12.0" height="2"/>
    <rect x="-22.0" y="60.0" width="2" height="12.0"/>
    <rect x="-24.0" y="74.0" width="12.0" height="2"/>
    <rect x="-22.0" y="84.0" width="2" height="12.0"/>
    <rect x="-24.0" y="98.0" width="12.0" height="2"/>
    <rect x="-22.0" y="108.0" width="2" height="12.0"/>
    <rect x="-24.0" y="122.0" width="12.0" height="2"/>
    <rect x="-22.0" y="132.0" width="2" height="12.0"/>
    <rect x="-10.0" y="-24.0" width="2" height="12.0"/>
    <rect x="-12.0" y="-10.0" width="12.0" height="2"/>
    <rect x="-10.0" y="0.0" width="2" height="12.0"/>
    <rect x="-12.0" y="14.0" width="12.0" height="2"/>
    <rect x="-10.0" y="24.0" width="2" height="12.0"/>
    <rect x="-12.0" y="38.0" width="12.0" height="2"/>
    <rect x="-10.0" y="48.0" width="2" height="12.0"/>
    <rect x="-12.0" y="62.0" width="12.0" height="2"/>
    <rect x="-10.0" y="72.0" width="2" height="12.0"/>
    <rect x="-12.0" y="86.0" width="12.0" height="2"/>
    <rect x="-10.0" y="96.0" width="2" height="12.0"/>
    <rect x="-12.0" y="110.0" width="12.0" height="2"/>
    <rect x="-10.0" y="120.0" width="2" height="12.0"/>
    <rect x="-12.0" y="134.0" width="12.0" height="2"/>
    <rect x="0.0" y="-22.0" width="12.0" height="2"/>
    <rect x="2.0" y="-12.0" width="2" height="12.0"/>
    <rect x="0.0" y="2.0" width="12.0" height="2"/>
    <rect x="2.0" y="12.0" width="2" height="12.0"/>
    <rect x="0.0" y="26.0" width="12.0" height="2"/>
    <rect x="2.0" y="36.0" width="2" height="12.0"/>
    <rect x="0.0" y="50.0" width="12.0" height="2"/>
    <rect x="2.0" y="60.0" width="2" height="12.0"/>
    <rect x="0.0" y="74.0" width="12.0" height="2"/>
    <rect x="2.0" y="84.0" width="2" height="12.0"/>
    <rect x="0.0" y="98.0" width="12.0" height="2"/>
    <rect x="2.0" y="108.0" width="2" height="12.0"/>
    <rect x="0.0" y="122.0" width="12.0" height="2"/>
    <rect x="2.0" y="132.0" width="2" height="12.0"/>
    <rect x="14.0" y="-24.0" width="2" height="12.0"/>
    <rect x="12.0" y="-10.0" width="12.0" height="2"/>
    <rect x="14.0" y="0.0" width="2" height="12.0"/>
    <rect x="12.0" y="14.0" width="12.0" height="2"/>
    <rect x="14.0" y="24.0" width="2" height="12.0"/>
    <rect x="12.0" y="38.0" width="12.0" height="2"/>
    <rect x="14.0" y="48.0" width="2" height="12.0"/>
    <rect x="12.0" y="62.0" width="12.0" height="2"/>
    <rect x="14.0" y="72.0" width="2" height="12.0"/>
    <rect x="12.0" y="86.0" width="12.0" height="2"/>
    <rect x="14.0" y="96.0" width="2" height="12.0"/>
    <rect x="12.0" y="110.0" width="12.0" height="2"/>
    <rect x="14.0" y="120.0" width="2" height="12.0"/>
    <rect x="12.0" y="134.0" width="12.0" height="2"/>
    <rect x="24.0" y="-22.0" width="12.0" height="2"/>
    <rect x="26.0" y="-12.0" width="2" height="12.0"/>
    <rect x="24.0" y="2.0" width="12.0" height="2"/>
    <rect x="26.0" y="12.0" width="2" height="12.0"/>
    <rect x="24.0" y="26.0" width="12.0" height="2"/>
    <rect x="26.0" y="36.0" width="2" height="12.0"/>
    <rect x="24.0" y="50.0" width="12.0" height="2"/>
    <rect x="26.0" y="60.0" width="2" height="12.0"/>
    <rect x="24.0" y="74.0" width="12.0" height="2"/>
    <rect x="26.0" y="84.0" width="2" height="12.0"/>
    <rect x="24.0" y="98.0" width="12.0" height="2"/>
    <rect x="26.0" y="108.0" width="2" height="12.0"/>
    <rect x="24.0" y="122.0" width="12.0" height="2"/>
    <rect x="26.0" y="132.0" width="2" height="12.0"/>
    <rect x="38.0" y="-24.0" width="2" height="12.0"/>
    <rect x="36.0" y="-10.0" width="12.0" height="2"/>
    <rect x="38.0" y="0.0" width="2" height="12.0"/>
    <rect x="36.0" y="14.0" width="12.0" height="2"/>
    <rect x="38.0" y="24.0" width="2" height="12.0"/>
    <rect x="36.0" y="38.0" width="12.0" height="2"/>
    <rect x="38.0" y="48.0" width="2" height="12.0"/>
    <rect x="36.0" y="62.0" width="12.0" height="2"/>
    <rect x="38.0" y="72.0" width="2" height="12.0"/>
    <rect x="36.0" y="86.0" width="12.0" height="2"/>
    <rect x="38.0" y="96.0" width="2" height="12.0"/>
    <rect x="36.0" y="110.0" width="12.0" height="2"/>
    <rect x="38.0" y="120.0" width="2" height="12.0"/>
    <rect x="36.0" y="134.0" width="12.0" height="2"/>
    <rect x="48.0" y="-22.0" width="12.0" height="2"/>
    <rect x="50.0" y="-12.0" width="2" height="12.0"/>
    <rect x="48.0" y="2.0" width="12.0" height="2"/>
    <rect x="50.0" y="12.0" width="2" height="12.0"/>
    <rect x="48.0" y="26.0" width="12.0" height="2"/>
    <rect x="50.0" y="36.0" width="2" height="12.0"/>
    <rect x="48.0" y="50.0" width="12.0" height="2"/>
    <rect x="50.0" y="60.0" width="2" height="12.0"/>
    <rect x="48.0" y="74.0" width="12.0" height="2"/>
    <rect x="50.0" y="84.0" width="2" height="12.0"/>
    <rect x="48.0" y="98.0" width="12.0" height="2"/>
    <rect x="50.0" y="108.0" width="2" height="12.0"/>
    <rect x="48.0" y="122.0" width="12.0" height="2"/>
    <rect x="50.0" y="132.0" width="2" height="12.0"/>
    <rect x="62.0" y="-24.0" width="2" height="12.0"/>
    <rect x="60.0" y="-10.0" width="12.0" height="2"/>
    <rect x="62.0" y="0.0" width="2" height="12.0"/>
    <rect x="60.0" y="14.0" width="12.0" height="2"/>
    <rect x="62.0" y="24.0" width="2" height="12.0"/>
    <rect x="60.0" y="38.0" width="12.0" height="2"/>
    <rect x="62.0" y="48.0" width="2" height="12.0"/>
    <rect x="60.0" y="62.0" width="12.0" height="2"/>
    <rect x="62.0" y="72.0" width="2" height="12.0"/>
    <rect x="60.0" y="86.0" width="12.0" height="2"/>
    <rect x="62.0" y="96.0" width="2" height="12.0"/>
    <rect x="60.0" y="110.0" width="12.0" height="2"/>
    <rect x="62.0" y="120.0" width="2" height="12.0"/>
    <rect x="60.0" y="134.0" width="12.0" height="2"/>
    <rect x="72.0" y="-22.0" width="12.0" height="2"/>
    <rect x="74.0" y="-12.0" width="2" height="12.0"/>
    <rect x="72.0" y="2.0" width="12.0" height="2"/>
    <rect x="74.0" y="12.0" width="2" height="12.0"/>
    <rect x="72.0" y="26.0" width="12.0" height="2"/>
    <rect x="74.0" y="36.0" width="2" height="12.0"/>
    <rect x="72.0" y="50.0" width="12.0" height="2"/>
    <rect x="74.0" y="60.0" width="2" height="12.0"/>
    <rect x="72.0" y="74.0" width="12.0" height="2"/>
    <rect x="74.0" y="84.0" width="2" height="12.0"/>
    <rect x="72.0" y="98.0" width="12.0" height="2"/>
    <rect x="74.0" y="108.0" width="2" height="12.0"/>
    <rect x="72.0" y="122.0" width="12.0" height="2"/>
    <rect x="74.0" y="132.0" width="2" height="12.0"/>
    <rect x="86.0" y="-24.0" width="2" height="12.0"/>
    <rect x="84.0" y="-10.0" width="12.0" height="2"/>
    <rect x="86.0" y="0.0" width="2" height="12.0"/>
    <rect x="84.0" y="14.0" width="12.0" height="2"/>
    <rect x="86.0" y="24.0" width="2" height="12.0"/>
    <rect x="84.0" y="38.0" width="12.0" height="2"/>
    <rect x="86.0" y="48.0" width="2" height="12.0"/>
    <rect x="84.0" y="62.0" width="12.0" height="2"/>
    <rect x="86.0" y="72.0" width="2" height="12.0"/>
    <rect x="84.0" y="86.0" width="12.0" height="2"/>
    <rect x="86.0" y="96.0" width="2" height="12.0"/>
    <rect x="84.0" y="110.0" width="12.0" height="2"/>
    <rect x="86.0" y="120.0" width="2" height="12.0"/>
    <rect x="84.0" y="134.0" width="12.0" height="2"/>
    <rect x="96.0" y="-22.0" width="12.0" height="2"/>
    <rect x="98.0" y="-12.0" width="2" height="12.0"/>
    <rect x="96.0" y="2.0" width="12.0" height="2"/>
    <rect x="98.0" y="12.0" width="2" height="12.0"/>
    <rect x="96.0" y="26.0" width="12.0" height="2"/>
    <rect x="98.0" y="36.0" width="2" height="12.0"/>
    <rect x="96.0" y="50.0" width="12.0" height="2"/>
    <rect x="98.0" y="60.0" width="2" height="12.0"/>
    <rect x="96.0" y="74.0" width="12.0" height="2"/>
    <rect x="98.0" y="84.0" width="2" height="12.0"/>
    <rect x="96.0" y="98.0" width="12.0" height="2"/>
    <rect x="98.0" y="108.0" width="2" height="12.0"/>
    <rect x="96.0" y="122.0" width="12.0" height="2"/>
    <rect x="98.0" y="132.0" width="2" height="12.0"/>
    <rect x="110.0" y="-24.0" width="2" height="12.0"/>
    <rect x="108.0" y="-10.0" width="12.0" height="2"/>
    <rect x="110.0" y="0.0" width="2" height="12.0"/>
    <rect x="108.0" y="14.0" width="12.0" height="2"/>
    <rect x="110.0" y="24.0" width="2" height="12.0"/>
    <rect x="108.0" y="38.0" width="12.0" height="2"/>
    <rect x="110.0" y="48.0" width="2" height="12.0"/>
    <rect x="108.0" y="62.0" width="12.0" height="2"/>
    <rect x="110.0" y="72.0" width="2" height="12.0"/>
    <rect x="108.0" y="86.0" width="12.0" height="2"/>
    <rect x="110.0" y="96.0" width="2" height="12.0"/>
    <rect x="108.0" y="110.0" width="12.0" height="2"/>
    <rect x="110.0" y="120.0" width="2" height="12.0"/>
    <rect x="108.0" y="134.0" width="12.0" height="2"/>
    <rect x="120.0" y="-22.0" width="12.0" height="2"/>
    <rect x="122.0" y="-12.0" width="2" height="12.0"/>
    <rect x="120.0" y="2.0" width="12.0" height="2"/>
    <rect x="122.0" y="12.0" width="2" height="12.0"/>
    <rect x="120.0" y="26.0" width="12.0" height="2"/>
    <rect x="122.0" y="36.0" width="2" height="12.0"/>
    <rect x="120.0" y="50.0" width="12.0" height="2"/>
    <rect x="122.0" y="60.0" width="2" height="12.0"/>
    <rect x="120.0" y="74.0" width="12.0" height="2"/>
    <rect x="122.0" y="84.0" width="2" height="12.0"/>
    <rect x="120.0" y="98.0" width="12.0" height="2"/>
    <rect x="122.0" y="108.0" width="2" height="12.0"/>
    <rect x="120.0" y="122.0" width="12.0" height="2"/>
    <rect x="122.0" y="132.0" width="2" height="12.0"/>
    <rect x="134.0" y="-24.0" width="2" height="12.0"/>
    <rect x="132.0" y="-10.0" width="12.0" height="2"/>
    <rect x="134.0" y="0.0" width="2" height="12.0"/>
    <rect x="132.0" y="14.0" width="12.0" height="2"/>
    <rect x="134.0" y="24.0" width="2" height="12.0"/>
    <rect x="132.0" y="38.0" width="12.0" height="2"/>
    <rect x="134.0" y="48.0" width="2" height="12.0"/>
    <rect x="132.0" y="62.0" width="12.0" height="2"/>
    <rect x="134.0" y="72.0" width="2" height="12.0"/>
    <rect x="132.0" y="86.0" width="12.0" height="2"/>
    <rect x="134.0" y="96.0" width="2" height="12.0"/>
    <rect x="132.0" y="110.0" width="12.0" height="2"/>
    <rect x="134.0" y="120.0" width="2" height="12.0"/>
    <rect x="132.0" y="134.0" width="12.0" height="2"/>
  </g>
  <g fill="white" opacity="0.08">
    <rect x="-24.0" y="-19.0" width="12.0" height="2"/>
    <rect x="-19.0" y="-12.0" width="2" height="12.0"/>
    <rect x="-24.0" y="5.0" width="12.0" height="2"/>
    <rect x="-19.0" y="12.0" width="2" height="12.0"/>
    <rect x="-24.0" y="29.0" width="12.0" height="2"/>
    <rect x="-19.0" y="36.0" width="2" height="12.0"/>
    <rect x="-24.0" y="53.0" width="12.0" height="2"/>
    <rect x="-19.0" y="60.0" width="2" height="12.0"/>
    <rect x="-24.0" y="77.0" width="12.0" height="2"/>
    <rect x="-19.0" y="84.0" width="2" height="12.0"/>
    <rect x="-24.0" y="101.0" width="12.0" height="2"/>
    <rect x="-19.0" y="108.0" width="2" height="12.0"/>
    <rect x="-24.0" y="125.0" width="12.0" height="2"/>
    <rect x="-19.0" y="132.0" width="2" height="12.0"/>
    <rect x="-7.0" y="-24.0" width="2" height="12.0"/>
    <rect x="-12.0" y="-7.0" width="12.0" height="2"/>
    <rect x="-7.0" y="0.0" width="2" height="12.0"/>
    <rect x="-12.0" y="17.0" width="12.0" height="2"/>
    <rect x="-7.0" y="24.0" width="2" height="12.0"/>
    <rect x="-12.0" y="41.0" width="12.0" height="2"/>
    <rect x="-7.0" y="48.0" width="2" height="12.0"/>
    <rect x="-12.0" y="65.0" width="12.0" height="2"/>
    <rect x="-7.0" y="72.0" width="2" height="12.0"/>
    <rect x="-12.0" y="89.0" width="12.0" height="2"/>
    <rect x="-7.0" y="96.0" width="2" height="12.0"/>
    <rect x="-12.0" y="113.0" width="12.0" height="2"/>
    <rect x="-7.0" y="120.0" width="2" height="12.0"/>
    <rect x="-12.0" y="137.0" width="12.0" height="2"/>
    <rect x="0.0" y="-19.0" width="12.0" height="2"/>
    <rect x="5.0" y="-12.0" width="2" height="12.0"/>
    <rect x="0.0" y="5.0" width="12.0" height="2"/>
    <rect x="5.0" y="12.0" width="2" height="12.0"/>
    <rect x="0.0" y="29.0" width="12.0" height="2"/>
    <rect x="5.0" y="36.0" width="2" height="12.0"/>
    <rect x="0.0" y="53.0" width="12.0" height="2"/>
    <rect x="5.0" y="60.0" width="2" height="12.0"/>
    <rect x="0.0" y="77.0" width="12.0" height="2"/>
    <rect x="5.0" y="84.0" width="2" height="12.0"/>
    <rect x="0.0" y="101.0" width="12.0" height="2"/>
    <rect x="5.0" y="108.0" width="2" height="12.0"/>
    <rect x="0.0" y="125.0" width="12.0" height="2"/>
    <rect x="5.0" y="132.0" width="2" height="12.0"/>
    <rect x="17.0" y="-24.0" width="2" height="12.0"/>
    <rect x="12.0" y="-7.0" width="12.0" height="2"/>
    <rect x="17.0" y="0.0" width="2" height="12.0"/>
    <rect x="12.0" y="17.0" width="12.0" height="2"/>
    <rect x="17.0" y="24.0" width="2" height="12.0"/>
    <rect x="12.0" y="41.0" width="12.0" height="2"/>
    <rect x="17.0" y="48.0" width="2" height="12.0"/>
    <rect x="12.0" y="65.0" width="12.0" height="2"/>
    <rect x="17.0" y="72.0" width="2" height="12.0"/>
    <rect x="12.0" y="89.0" width="12.0" height="2"/>
    <rect x="17.0" y="96.0" width="2" height="12.0"/>
    <rect x="12.0" y="113.0" width="12.0" height="2"/>
    <rect x="17.0" y="120.0" width="2" height="12.0"/>
    <rect x="12.0" y="137.0" width="12.0" height="2"/>
    <rect x="24.0" y="-19.0" width="12.0" height="2"/>
    <rect x="29.0" y="-12.0" width="2" height="12.0"/>
    <rect x="24.0" y="5.0" width="12.0" height="2"/>
    <rect x="29.0" y="12.0" width="2" height="12.0"/>
    <rect x="24.0" y="29.0" width="12.0" height="2"/>
    <rect x="29.0" y="36.0" width="2" height="12.0"/>
    <rect x="24.0" y="53.0" width="12.0" height="2"/>
    <rect x="29.0" y="60.0" width="2" height="12.0"/>
    <rect x="24.0" y="77.0" width="12.0" height="2"/>
    <rect x="29.0" y="84.0" width="2" height="12.0"/>
    <rect x="24.0" y="101.0" width="12.0" height="2"/>
    <rect x="29.0" y="108.0" width="2" height="12.0"/>
    <rect x="24.0" y="125.0" width="12.0" height="2"/>
    <rect x="29.0" y="132.0" width="2" height="12.0"/>
    <rect x="41.0" y="-24.0" width="2" height="12.0"/>
    <rect x="36.0" y="-7.0" width="12.0" height="2"/>
    <rect x="41.0" y="0.0" width="2" height="12.0"/>
    <rect x="36.0" y="17.0" width="12.0" height="2"/>
    <rect x="41.0" y="24.0" width="2" height="12.0"/>
    <rect x="36.0" y="41.0" width="12.0" height="2"/>
    <rect x="41.0" y="48.0" width="2" height="12.0"/>
    <rect x="36.0" y="65.0" width="12.0" height="2"/>
    <rect x="41.0" y="72.0" width="2" height="12.0"/>
    <rect x="36.0" y="89.0" width="12.0" height="2"/>
    <rect x="41.0" y="96.0" width="2" height="12.0"/>
    <rect x="36.0" y="113.0" width="12.0" height="2"/>
    <rect x="41.0" y="120.0" width="2" height="12.0"/>
    <rect x="36.0" y="137.0" width="12.0" height="2"/>
    <rect x="48.0" y="-19.0" width="12.0" height="2"/>
    <rect x="53.0" y="-12.0" width="2" height="12.0"/>
    <rect x="48.0" y="5.0" width="12.0" height="2"/>
    <rect x="53.0" y="12.0" width="2" height="12.0"/>
    <rect x="48.0" y="29.0" width="12.0" height="2"/>
    <rect x="53.0" y="36.0" width="2" height="12.0"/>
    <rect x="48.0" y="53.0" width="12.0" height="2"/>
    <rect x="53.0" y="60.0" width="2" height="12.0"/>
    <rect x="48.0" y="77.0" width="12.0" height="2"/>
    <rect x="53.0" y="84.0" width="2" height="12.0"/>
    <rect x="48.0" y="101.0" width="12.0" height="2"/>
    <rect x="53.0" y="108.0" width="2" height="12.0"/>
    <rect x="48.0" y="125.0" width="12.0" height="2"/>
    <rect x="53.0" y="132.0" width="2" height="12.0"/>
    <rect x="65.0" y="-24.0" width="2" height="12.0"/>
    <rect x="60.0" y="-7.0" width="12.0" height="2"/>
    <rect x="65.0" y="0.0" width="2" height="12.0"/>
    <rect x="60.0" y="17.0" width="12.0" height="2"/>
    <rect x="65.0" y="24.0" width="2" height="12.0"/>
    <rect x="60.0" y="41.0" width="12.0" height="2"/>
    <rect x="65.0" y="48.0" width="2" height="12.0"/>
    <rect x="60.0" y="65.0" width="12.0" height="2"/>
    <rect x="65.0" y="72.0" width="2" height="12.0"/>
    <rect x="60.0" y="89.0" width="12.0" height="2"/>
    <rect x="65.0" y="96.0" width="2" height="12.0"/>
    <rect x="60.0" y="113.0" width="12.0" height="2"/>
    <rect x="65.0" y="120.0" width="2" height="12.0"/>
    <rect x="60.0" y="137.0" width="12.0" height="2"/>
    <rect x="72.0" y="-19.0" width="12.0" height="2"/>
    <rect x="77.0" y="-12.0" width="2" height="12.0"/>
    <rect x="72.0" y="5.0" width="12.0" height="2"/>
    <rect x="77.0" y="12.0" width="2" height="12.0"/>
    <rect x="72.0" y="29.0" width="12.0" height="2"/>
    <rect x="77.0" y="36.0" width="2" height="12.0"/>
    <rect x="72.0" y="53.0" width="12.0" height="2"/>
    <rect x="77.0" y="60.0" width="2" height="12.0"/>
    <rect x="72.0" y="77.0" width="12.0" height="2"/>
    <rect x="77.0" y="84.0" width="2" height="12.0"/>
    <rect x="72.0" y="101.0" width="12.0" height="2"/>
    <rect x="77.0" y="108.0" width="2" height="12.0"/>
    <rect x="72.0" y="125.0" width="12.0" height="2"/>
    <rect x="77.0" y="132.0" width="2" height="12.0"/>
    <rect x="89.0" y="-24.0" width="2" height="12.0"/>
    <rect x="84.0" y="-7.0" width="12.0" height="2"/>
    <rect x="89.0" y="0.0" width="2" height="12.0"/>
    <rect x="84.0" y="17.0" width="12.0" height="2"/>
    <rect x="89.0" y="24.0" width="2" height="12.0"/>
    <rect x="84.0" y="41.0" width="12.0" height="2"/>
    <rect x="89.0" y="48.0" width="2" height="12.0"/>
    <rect x="84.0" y="65.0" width="12.0" height="2"/>
    <rect x="89.0" y="72.0" width="2" height="12.0"/>
    <rect x="84.0" y="89.0" width="12.0" height="2"/>
    <rect x="89.0" y="96.0" width="2" height="12.0"/>
    <rect x="84.0" y="113.0" width="12.0" height="2"/>
    <rect x="89.0" y="120.0" width="2" height="12.0"/>
    <rect x="84.0" y="137.0" width="12.0" height="2"/>
    <rect x="96.0" y="-19.0" width="12.0" height="2"/>
    <rect x="101.0" y="-12.0" width="2" height="12.0"/>
    <rect x="96.0" y="5.0" width="12.0" height="2"/>
    <rect x="101.0" y="12.0" width="2" height="12.0"/>
    <rect x="96.0" y="29.0" width="12.0" height="2"/>
    <rect x="101.0" y="36.0" width="2" height="12.0"/>
    <rect x="96.0" y="53.0" width="12.0" height="2"/>
    <rect x="101.0" y="60.0" width="2" height="12.0"/>
    <rect x="96.0" y="77.0" width="12.0" height="2"/>
    <rect x="101.0" y="84.0" width="2" height="12.0"/>
    <rect x="96.0" y="101.0" width="12.0" height="2"/>
    <rect x="101.0" y="108.0" width="2" height="12.0"/>
    <rect x="96.0" y="125.0" width="12.0" height="2"/>
    <rect x="101.0" y="132.0" width="2" height="12.0"/>
    <rect x="113.0" y="-24.0" width="2" height="12.0"/>
    <rect x="108.0" y="-7.0" width="12.0" height="2"/>
    <rect x="113.0" y="0.0" width="2" height="12.0"/>
    <rect x="108.0" y="17.0" width="12.0" height="2"/>
    <rect x="113.0" y="24.0" width="2" height="12.0"/>
    <rect x="108.0" y="41.0" width="12.0" height="2"/>
    <rect x="113.0" y="48.0" width="2" height="12.0"/>
    <rect x="108.0" y="65.0" width="12.0" height="2"/>
    <rect x="113.0" y="72.0" width="2" height="12.0"/>
    <rect x="108.0" y="89.0" width="12.0" height="2"/>
    <rect x="113.0" y="96.0" width="2" height="12.0"/>
    <rect x="108.0" y="113.0" width="12.0" height="2"/>
    <rect x="113.0" y="120.0" width="2" height="12.0"/>
    <rect x="108.0" y="137.0" width="12.0" height="2"/>
    <rect x="120.0" y="-19.0" width="12.0" height="2"/>
    <rect x="125.0" y="-12.0" width="2" height="12.0"/>
    <rect x="120.0" y="5.0" width="12.0" height="2"/>
    <rect x="125.0" y="12.0" width="2" height="12.0"/>
    <rect x="120.0" y="29.0" width="12.0" height="2"/>
    <rect x="125.0" y="36.0" width="2" height="12.0"/>
    <rect x="120.0" y="53.0" width="12.0" height="2"/>
    <rect x="125.0" y="60.0" width="2" height="12.0"/>
    <rect x="120.0" y="77.0" width="12.0" height="2"/>
    <rect x="125.0" y="84.0" width="2" height="12.0"/>
    <rect x="120.0" y="101.0" width="12.0" height="2"/>
    <rect x="125.0" y="108.0" width="2" height="12.0"/>
    <rect x="120.0" y="125.0" width="12.0" height="2"/>
    <rect x="125.0" y="132.0" width="2" height="12.0"/>
    <rect x="137.0" y="-24.0" width="2" height="12.0"/>
    <rect x="132.0" y="-7.0" width="12.0" height="2"/>
    <rect x="137.0" y="0.0" width="2" height="12.0"/>
    <rect x="132.0" y="17.0" width="12.0" height="2"/>
    <rect x="137.0" y="24.0" width="2" height="12.0"/>
    <rect x="132.0" y="41.0" width="12.0" height="2"/>
    <rect x="137.0" y="48.0" width="2" height="12.0"/>
    <rect x="132.0" y="65.0" width="12.0" height="2"/>
    <rect x="137.0" y="72.0" width="2" height="12.0"/>
    <rect x="132.0" y="89.0" width="12.0" height="2"/>
    <rect x="137.0" y="96.0" width="2" height="12.0"/>
    <rect x="132.0" y="113.0" width="12.0" height="2"/>
    <rect x="137.0" y="120.0" width="2" height="12.0"/>
    <rect x="132.0" y="137.0" width="12.0" height="2"/>
  </g>
  <g fill="white" opacity="0.04">
    <rect x="-24.0" y="-16.0" width="12.0" height="2"/>
    <rect x="-16.0" y="-12.0" width="2" height="12.0"/>
    <rect x="-24.0" y="8.0" width="12.0" height="2"/>
    <rect x="-16.0" y="12.0" width="2" height="12.0"/>
    <rect x="-24.0" y="32.0" width="12.0" height="2"/>
    <rect x="-16.0" y="36.0" width="2" height="12.0"/>
    <rect x="-24.0" y="56.0" width="12.0" height="2"/>
    <rect x="-16.0" y="60.0" width="2" height="12.0"/>
    <rect x="-24.0" y="80.0" width="12.0" height="2"/>
    <rect x="-16.0" y="84.0" width="2" height="12.0"/>
    <rect x="-24.0" y="104.0" width="12.0" height="2"/>
    <rect x="-16.0" y="108.0" width="2" height="12.0"/>
    <rect x="-24.0" y="128.0" width="12.0" height="2"/>
    <rect x="-16.0" y="132.0" width="2" height="12.0"/>
    <rect x="-4.0" y="-24.0" width="2" height="12.0"/>
    <rect x="-12.0" y="-4.0" width="12.0" height="2"/>
    <rect x="-4.0" y="0.0" width="2" height="12.0"/>
    <rect x="-12.0" y="20.0" width="12.0" height="2"/>
    <rect x="-4.0" y="24.0" width="2" height="12.0"/>
    <rect x="-12.0" y="44.0" width="12.0" height="2"/>
    <rect x="-4.0" y="48.0" width="2" height="12.0"/>
    <rect x="-12.0" y="68.0" width="12.0" height="2"/>
    <rect x="-4.0" y="72.0" width="2" height="12.0"/>
    <rect x="-12.0" y="92.0" width="12.0" height="2"/>
    <rect x="-4.0" y="96.0" width="2" height="12.0"/>
    <rect x="-12.0" y="116.0" width="12.0" height="2"/>
    <rect x="-4.0" y="120.0" width="2" height="12.0"/>
    <rect x="-12.0" y="140.0" width="12.0" height="2"/>
    <rect x="0.0" y="-16.0" width="12.0" height="2"/>
    <rect x="8.0" y="-12.0" width="2" height="12.0"/>
    <rect x="0.0" y="8.0" width="12.0" height="2"/>
    <rect x="8.0" y="12.0" width="2" height="12.0"/>
    <rect x="0.0" y="32.0" width="12.0" height="2"/>
    <rect x="8.0" y="36.0" width="2" height="12.0"/>
    <rect x="0.0" y="56.0" width="12.0" height="2"/>
    <rect x="8.0" y="60.0" width="2" height="12.0"/>
    <rect x="0.0" y="80.0" width="12.0" height="2"/>
    <rect x="8.0" y="84.0" width="2" height="12.0"/>
    <rect x="0.0" y="104.0" width="12.0" height="2"/>
    <rect x="8.0" y="108.0" width="2" height="12.0"/>
    <rect x="0.0" y="128.0" width="12.0" height="2"/>
    <rect x="8.0" y="132.0" width="2" height="12.0"/>
    <rect x="20.0" y="-24.0" width="2" height="12.0"/>
    <rect x="12.0" y="-4.0" width="12.0" height="2"/>
    <rect x="20.0" y="0.0" width="2" height="12.0"/>
    <rect x="12.0" y="20.0" width="12.0" height="2"/>
    <rect x="20.0" y="24.0" width="2" height="12.0"/>
    <rect x="12.0" y="44.0" width="12.0" height="2"/>
    <rect x="20.0" y="48.0" width="2" height="12.0"/>
    <rect x="12.0" y="68.0" width="12.0" height="2"/>
    <rect x="20.0" y="72.0" width="2" height="12.0"/>
    <rect x="12.0" y="92.0" width="12.0" height="2"/>
    <rect x="20.0" y="96.0" width="2" height="12.0"/>
    <rect x="12.0" y="116.0" width="12.0" height="2"/>
    <rect x="20.0" y="120.0" width="2" height="12.0"/>
    <rect x="12.0" y="140.0" width="12.0" height="2"/>
    <rect x="24.0" y="-16.0" width="12.0" height="2"/>
    <rect x="32.0" y="-12.0" width="2" height="12.0"/>
    <rect x="24.0" y="8.0" width="12.0" height="2"/>
    <rect x="32.0" y="12.0" width="2" height="12.0"/>
    <rect x="24.0" y="32.0" width="12.0" height="2"/>
    <rect x="32.0" y="36.0" width="2" height="12.0"/>
    <rect x="24.0" y="56.0" width="12.0" height="2"/>
    <rect x="32.0" y="60.0" width="2" height="12.0"/>
    <rect x="24.0" y="80.0" width="12.0" height="2"/>
    <rect x="32.0" y="84.0" width="2" height="12.0"/>
    <rect x="24.0" y="104.0" width="12.0" height="2"/>
    <rect x="32.0" y="108.0" width="2" height="12.0"/>
    <rect x="24.0" y="128.0" width="12.0" height="2"/>
    <rect x="32.0" y="132.0" width="2" height="12.0"/>
    <rect x="44.0" y="-24.0" width="2" height="12.0"/>
    <rect x="36.0" y="-4.0" width="12.0" height="2"/>
    <rect x="44.0" y="0.0" width="2" height="12.0"/>
    <rect x="36.0" y="20.0" width="12.0" height="2"/>
    <rect x="44.0" y="24.0" width="2" height="12.0"/>
    <rect x="36.0" y="44.0" width="12.0" height="2"/>
    <rect x="44.0" y="48.0" width="2" height="12.0"/>
    <rect x="36.0" y="68.0" width="12.0" height="2"/>
    <rect x="44.0" y="72.0" width="2" height="12.0"/>
    <rect x="36.0" y="92.0" width="12.0" height="2"/>
    <rect x="44.0" y="96.0" width="2" height="12.0"/>
    <rect x="36.0" y="116.0" width="12.0" height="2"/>
    <rect x="44.0" y="120.0" width="2" height="12.0"/>
    <rect x="36.0" y="140.0" width="12.0" height="2"/>
    <rect x="48.0" y="-16.0" width="12.0" height="2"/>
    <rect x="56.0" y="-12.0" width="2" height="12.0"/>
    <rect x="48.0" y="8.0" width="12.0" height="2"/>
    <rect x="56.0" y="12.0" width="2" height="12.0"/>
    <rect x="48.0" y="32.0" width="12.0" height="2"/>
    <rect x="56.0" y="36.0" width="2" height="12.0"/>
    <rect x="48.0" y="56.0" width="12.0" height="2"/>
    <rect x="56.0" y="60.0" width="2" height="12.0"/>
    <rect x="48.0" y="80.0" width="12.0" height="2"/>
    <rect x="56.0" y="84.0" width="2" height="12.0"/>
    <rect x="48.0" y="104.0" width="12.0" height="2"/>
    <rect x="56.0" y="108.0" width="2" height="12.0"/>
    <rect x="48.0" y="128.0" width="12.0" height="2"/>
    <rect x="56.0" y="132.0" width="2" height="12.0"/>
    <rect x="68.0" y="-24.0" width="2" height="12.0"/>
    <rect x="60.0" y="-4.0" width="12.0" height="2"/>
    <rect x="68.0" y="0.0" width="2" height="12.0"/>
    <rect x="60.0" y="20.0" width="12.0" height="2"/>
    <rect x="68.0" y="24.0" width="2" height="12.0"/>
    <rect x="60.0" y="44.0" width="12.0" height="2"/>
    <rect x="68.0" y="48.0" width="2" height="12.0"/>
    <rect x="60.0" y="68.0" width="12.0" height="2"/>
    <rect x="68.0" y="72.0" width="2" height="12.0"/>
    <rect x="60.0" y="92.0" width="12.0" height="2"/>
    <rect x="68.0" y="96.0" width="2" height="12.0"/>
    <rect x="60.0" y="116.0" width="12.0" height="2"/>
    <rect x="68.0" y="120.0" width="2" height="12.0"/>
    <rect x="60.0" y="140.0" width="12.0" height="2"/>
    <rect x="72.0" y="-16.0" width="12.0" height="2"/>
    <rect x="80.0" y="-12.0" width="2" height="12.0"/>
    <rect x="72.0" y="8.0" width="12.0" height="2"/>
    <rect x="80.0" y="12.0" width="2" height="12.0"/>
    <rect x="72.0" y="32.0" width="12.0" height="2"/>
    <rect x="80.0" y="36.0" width="2" height="12.0"/>
    <rect x="72.0" y="56.0" width="12.0" height="2"/>
    <rect x="80.0" y="60.0" width="2" height="12.0"/>
    <rect x="72.0" y="80.0" width="12.0" height="2"/>
    <rect x="80.0" y="84.0" width="2" height="12.0"/>
    <rect x="72.0" y="104.0" width="12.0" height="2"/>
    <rect x="80.0" y="108.0" width="2" height="12.0"/>
    <rect x="72.0" y="128.0" width="12.0" height="2"/>
    <rect x="80.0" y="132.0" width="2" height="12.0"/>
    <rect x="92.0" y="-24.0" width="2" height="12.0"/>
    <rect x="84.0" y="-4.0" width="12.0" height="2"/>
    <rect x="92.0" y="0.0" width="2" height="12.0"/>
    <rect x="84.0" y="20.0" width="12.0" height="2"/>
    <rect x="92.0" y="24.0" width="2" height="12.0"/>
    <rect x="84.0" y="44.0" width="12.0" height="2"/>
    <rect x="92.0" y="48.0" width="2" height="12.0"/>
    <rect x="84.0" y="68.0" width="12.0" height="2"/>
    <rect x="92.0" y="72.0" width="2" height="12.0"/>
    <rect x="84.0" y="92.0" width="12.0" height="2"/>
    <rect x="92.0" y="96.0" width="2" height="12.0"/>
    <rect x="84.0" y="116.0" width="12.0" height="2"/>
    <rect x="92.0" y="120.0" width="2" height="12.0"/>
    <rect x="84.0" y="140.0" width="12.0" height="2"/>
    <rect x="96.0" y="-16.0" width="12.0" height="2"/>
    <rect x="104.0" y="-12.0" width="2" height="12.0"/>
    <rect x="96.0" y="8.0" width="12.0" height="2"/>
    <rect x="104.0" y="12.0" width="2" height="12.0"/>
    <rect x="96.0" y="32.0" width="12.0" height="2"/>
    <rect x="104.0" y="36.0" width="2" height="12.0"/>
    <rect x="96.0" y="56.0" width="12.0" height="2"/>
    <rect x="104.0" y="60.0" width="2" height="12.0"/>
    <rect x="96.0" y="80.0" width="12.0" height="2"/>
    <rect x="104.0" y="84.0" width="2" height="12.0"/>
    <rect x="96.0" y="104.0" width="12.0" height="2"/>
    <rect x="104.0" y="108.0" width="2" height="12.0"/>
    <rect x="96.0" y="128.0" width="12.0" height="2"/>
    <rect x="104.0" y="132.0" width="2" height="12.0"/>
    <rect x="116.0" y="-24.0" width="2" height="12.0"/>
    <rect x="108.0" y="-4.0" width="12.0" height="2"/>
    <rect x="116.0" y="0.0" width="2" height="12.0"/>
    <rect x="108.0" y="20.0" width="12.0" height="2"/>
    <rect x="116.0" y="24.0" width="2" height="12.0"/>
    <rect x="108.0" y="44.0" width="12.0" height="2"/>
    <rect x="116.0" y="48.0" width="2" height="12.0"/>
    <rect x="108.0" y="68.0" width="12.0" height="2"/>
    <rect x="116.0" y="72.0" width="2" height="12.0"/>
    <rect x="108.0" y="92.0" width="12.0" height="2"/>
    <rect x="116.0" y="96.0" width="2" height="12.0"/>
    <rect x="108.0" y="116.0" width="12.0" height="2"/>
    <rect x="116.0" y="120.0" width="2" height="12.0"/>
    <rect x="108.0" y="140.0" width="12.0" height="2"/>
    <rect x="120.0" y="-16.0" width="12.0" height="2"/>
    <rect x="128.0" y="-12.0" width="2" height="12.0"/>
    <rect x="120.0" y="8.0" width="12.0" height="2"/>
    <rect x="128.0" y="12.0" width="2" height="12.0"/>
    <rect x="120.0" y="32.0" width="12.0" height="2"/>
    <rect x="128.0" y="36.0" width="2" height="12.0"/>
    <rect x="120.0" y="56.0" width="12.0" height="2"/>
    <rect x="128.0" y="60.0" width="2" height="12.0"/>
    <rect x="120.0" y="80.0" width="12.0" height="2"/>
    <rect x="128.0" y="84.0" width="2" height="12.0"/>
    <rect x="120.0" y="104.0" width="12.0" height="2"/>
    <rect x="128.0" y="108.0" width="2" height="12.0"/>
    <rect x="120.0" y="128.0" width="12.0" height="2"/>
    <rect x="128.0" y="132.0" width="2" height="12.0"/>
    <rect x="140.0" y="-24.0" width="2" height="12.0"/>
    <rect x="132.0" y="-4.0" width="12.0" height="2"/>
    <rect x="140.0" y="0.0" width="2" height="12.0"/>
    <rect x="132.0" y="20.0" width="12.0" height="2"/>
    <rect x="140.0" y="24.0" width="2" height="12.0"/>
    <rect x="132.0" y="44.0" width="12.0" height="2"/>
    <rect x="140.0" y="48.0" width="2" height="12.0"/>
    <rect x="132.0" y="68.0" width="12.0" height="2"/>
    <rect x="140.0" y="72.0" width="2" height="12.0"/>
    <rect x="132.0" y="92.0" width="12.0" height="2"/>
    <rect x="140.0" y="96.0" width="2" height="12.0"/>
    <rect x="132.0" y="116.0" width="12.0" height="2"/>
    <rect x="140.0" y="120.0" width="2" height="12.0"/>
    <rect x="132.0" y="140.0" width="12.0" height="2"/>
  </g>
</svg>
