<svg xmlns="http://www.w3.org/2000/svg" width="120" height="120" viewBox="0 0 120 120">
  <g fill="none" stroke="white" stroke-width="1.2" opacity="0.15">
    <polygon points="-20.0,-8.7 -15.0,-17.3 -5.0,-17.3 0.0,-8.7 -5.0,0.0 -15.0,0.0"/>
    <polygon points="-5.0,0.0 0.0,-8.7 10.0,-8.7 15.0,0.0 10.0,8.7 0.0,8.7"/>
    <polygon points="10.0,-8.7 15.0,-17.3 25.0,-17.3 30.0,-8.7 25.0,0.0 15.0,0.0"/>
    <polygon points="25.0,0.0 30.0,-8.7 40.0,-8.7 45.0,0.0 40.0,8.7 30.0,8.7"/>
    <polygon points="40.0,-8.7 45.0,-17.3 55.0,-17.3 60.0,-8.7 55.0,0.0 45.0,0.0"/>
    <polygon points="55.0,0.0 60.0,-8.7 70.0,-8.7 75.0,0.0 70.0,8.7 60.0,8.7"/>
    <polygon points="70.0,-8.7 75.0,-17.3 85.0,-17.3 90.0,-8.7 85.0,0.0 75.0,0.0"/>
    <polygon points="85.0,0.0 90.0,-8.7 100.0,-8.7 105.0,0.0 100.0,8.7 90.0,8.7"/>
    <polygon points="100.0,-8.7 105.0,-17.3 115.0,-17.3 120.0,-8.7 115.0,0.0 105.0,0.0"/>
    <polygon points="115.0,0.0 120.0,-8.7 130.0,-8.7 135.0,0.0 130.0,8.7 120.0,8.7"/>
    <polygon points="130.0,-8.7 135.0,-17.3 145.0,-17.3 150.0,-8.7 145.0,0.0 135.0,0.0"/>
    <polygon points="145.0,0.0 150.0,-8.7 160.0,-8.7 165.0,0.0 160.0,8.7 150.0,8.7"/>
    <polygon points="-20.0,8.7 -15.0,0.0 -5.0,0.0 0.0,8.7 -5.0,17.3 -15.0,17.3"/>
    <polygon points="-5.0,17.3 0.0,8.7 10.0,8.7 15.0,17.3 10.0,26.0 0.0,26.0"/>
    <polygon points="10.0,8.7 15.0,0.0 25.0,0.0 30.0,8.7 25.0,17.3 15.0,17.3"/>
    <polygon points="25.0,17.3 30.0,8.7 40.0,8.7 45.0,17.3 40.0,26.0 30.0,26.0"/>
    <polygon points="40.0,8.7 45.0,0.0 55.0,0.0 60.0,8.7 55.0,17.3 45.0,17.3"/>
    <polygon points="55.0,17.3 60.0,8.7 70.0,8.7 75.0,17.3 70.0,26.0 60.0,26.0"/>
    <polygon points="70.0,8.7 75.0,0.0 85.0,0.0 90.0,8.7 85.0,17.3 75.0,17.3"/>
    <polygon points="85.0,17.3 90.0,8.7 100.0,8.7 105.0,17.3 100.0,26.0 90.0,26.0"/>
    <polygon points="100.0,8.7 105.0,0.0 115.0,0.0 120.0,8.7 115.0,17.3 105.0,17.3"/>
    <polygon points="115.0,17.3 120.0,8.7 130.0,8.7 135.0,17.3 130.0,26.0 120.0,26.0"/>
    <polygon points="130.0,8.7 135.0,0.0 145.0,0.0 150.0,8.7 145.0,17.3 135.0,17.3"/>
    <polygon points="145.0,17.3 150.0,8.7 160.0,8.7 165.0,17.3 160.0,26.0 150.0,26.0"/>
    <polygon points="-20.0,26.0 -15.0,17.3 -5.0,17.3 0.0,26.0 -5.0,34.6 -15.0,34.6"/>
    <polygon points="-5.0,34.6 0.0,26.0 10.0,26.0 15.0,34.6 10.0,43.3 0.0,43.3"/>
    <polygon points="10.0,26.0 15.0,17.3 25.0,17.3 30.0,26.0 25.0,34.6 15.0,34.6"/>
    <polygon points="25.0,34.6 30.0,26.0 40.0,26.0 45.0,34.6 40.0,43.3 30.0,43.3"/>
    <polygon points="40.0,26.0 45.0,17.3 55.0,17.3 60.0,26.0 55.0,34.6 45.0,34.6"/>
    <polygon points="55.0,34.6 60.0,26.0 70.0,26.0 75.0,34.6 70.0,43.3 60.0,43.3"/>
    <polygon points="70.0,26.0 75.0,17.3 85.0,17.3 90.0,26.0 85.0,34.6 75.0,34.6"/>
    <polygon points="85.0,34.6 90.0,26.0 100.0,26.0 105.0,34.6 100.0,43.3 90.0,43.3"/>
    <polygon points="100.0,26.0 105.0,17.3 115.0,17.3 120.0,26.0 115.0,34.6 105.0,34.6"/>
    <polygon points="115.0,34.6 120.0,26.0 130.0,26.0 135.0,34.6 130.0,43.3 120.0,43.3"/>
    <polygon points="130.0,26.0 135.0,17.3 145.0,17.3 150.0,26.0 145.0,34.6 135.0,34.6"/>
    <polygon points="145.0,34.6 150.0,26.0 160.0,26.0 165.0,34.6 160.0,43.3 150.0,43.3"/>
    <polygon points="-20.0,43.3 -15.0,34.6 -5.0,34.6 0.0,43.3 -5.0,52.0 -15.0,52.0"/>
    <polygon points="-5.0,52.0 0.0,43.3 10.0,43.3 15.0,52.0 10.0,60.6 0.0,60.6"/>
    <polygon points="10.0,43.3 15.0,34.6 25.0,34.6 30.0,43.3 25.0,52.0 15.0,52.0"/>
    <polygon points="25.0,52.0 30.0,43.3 40.0,43.3 45.0,52.0 40.0,60.6 30.0,60.6"/>
    <polygon points="40.0,43.3 45.0,34.6 55.0,34.6 60.0,43.3 55.0,52.0 45.0,52.0"/>
    <polygon points="55.0,52.0 60.0,43.3 70.0,43.3 75.0,52.0 70.0,60.6 60.0,60.6"/>
    <polygon points="70.0,43.3 75.0,34.6 85.0,34.6 90.0,43.3 85.0,52.0 75.0,52.0"/>
    <polygon points="85.0,52.0 90.0,43.3 100.0,43.3 105.0,52.0 100.0,60.6 90.0,60.6"/>
    <polygon points="100.0,43.3 105.0,34.6 115.0,34.6 120.0,43.3 115.0,52.0 105.0,52.0"/>
    <polygon points="115.0,52.0 120.0,43.3 130.0,43.3 135.0,52.0 130.0,60.6 120.0,60.6"/>
    <polygon points="130.0,43.3 135.0,34.6 145.0,34.6 150.0,43.3 145.0,52.0 135.0,52.0"/>
    <polygon points="145.0,52.0 150.0,43.3 160.0,43.3 165.0,52.0 160.0,60.6 150.0,60.6"/>
    <polygon points="-20.0,60.6 -15.0,52.0 -5.0,52.0 0.0,60.6 -5.0,69.3 -15.0,69.3"/>
    <polygon points="-5.0,69.3 0.0,60.6 10.0,60.6 15.0,69.3 10.0,77.9 0.0,77.9"/>
    <polygon points="10.0,60.6 15.0,52.0 25.0,52.0 30.0,60.6 25.0,69.3 15.0,69.3"/>
    <polygon points="25.0,69.3 30.0,60.6 40.0,60.6 45.0,69.3 40.0,77.9 30.0,77.9"/>
    <polygon points="40.0,60.6 45.0,52.0 55.0,52.0 60.0,60.6 55.0,69.3 45.0,69.3"/>
    <polygon points="55.0,69.3 60.0,60.6 70.0,60.6 75.0,69.3 70.0,77.9 60.0,77.9"/>
    <polygon points="70.0,60.6 75.0,52.0 85.0,52.0 90.0,60.6 85.0,69.3 75.0,69.3"/>
    <polygon points="85.0,69.3 90.0,60.6 100.0,60.6 105.0,69.3 100.0,77.9 90.0,77.9"/>
    <polygon points="100.0,60.6 105.0,52.0 115.0,52.0 120.0,60.6 115.0,69.3 105.0,69.3"/>
    <polygon points="115.0,69.3 120.0,60.6 130.0,60.6 135.0,69.3 130.0,77.9 120.0,77.9"/>
    <polygon points="130.0,60.6 135.0,52.0 145.0,52.0 150.0,60.6 145.0,69.3 135.0,69.3"/>
    <polygon points="145.0,69.3 150.0,60.6 160.0,60.6 165.0,69.3 160.0,77.9 150.0,77.9"/>
    <polygon points="-20.0,77.9 -15.0,69.3 -5.0,69.3 0.0,77.9 -5.0,86.6 -15.0,86.6"/>
    <polygon points="-5.0,86.6 0.0,77.9 10.0,77.9 15.0,86.6 10.0,95.3 0.0,95.3"/>
    <polygon points="10.0,77.9 15.0,69.3 25.0,69.3 30.0,77.9 25.0,86.6 15.0,86.6"/>
    <polygon points="25.0,86.6 30.0,77.9 40.0,77.9 45.0,86.6 40.0,95.3 30.0,95.3"/>
    <polygon points="40.0,77.9 45.0,69.3 55.0,69.3 60.0,77.9 55.0,86.6 45.0,86.6"/>
    <polygon points="55.0,86.6 60.0,77.9 70.0,77.9 75.0,86.6 70.0,95.3 60.0,95.3"/>
    <polygon points="70.0,77.9 75.0,69.3 85.0,69.3 90.0,77.9 85.0,86.6 75.0,86.6"/>
    <polygon points="85.0,86.6 90.0,77.9 100.0,77.9 105.0,86.6 100.0,95.3 90.0,95.3"/>
    <polygon points="100.0,77.9 105.0,69.3 115.0,69.3 120.0,77.9 115.0,86.6 105.0,86.6"/>
    <polygon points="115.0,86.6 120.0,77.9 130.0,77.9 135.0,86.6 130.0,95.3 120.0,95.3"/>
    <polygon points="130.0,77.9 135.0,69.3 145.0,69.3 150.0,77.9 145.0,86.6 135.0,86.6"/>
    <polygon points="145.0,86.6 150.0,77.9 160.0,77.9 165.0,86.6 160.0,95.3 150.0,95.3"/>
    <polygon points="-20.0,95.3 -15.0,86.6 -5.0,86.6 0.0,95.3 -5.0,103.9 -15.0,103.9"/>
    <polygon points="-5.0,103.9 0.0,95.3 10.0,95.3 15.0,103.9 10.0,112.6 0.0,112.6"/>
    <polygon points="10.0,95.3 15.0,86.6 25.0,86.6 30.0,95.3 25.0,103.9 15.0,103.9"/>
    <polygon points="25.0,103.9 30.0,95.3 40.0,95.3 45.0,103.9 40.0,112.6 30.0,112.6"/>
    <polygon points="40.0,95.3 45.0,86.6 55.0,86.6 60.0,95.3 55.0,103.9 45.0,103.9"/>
    <polygon points="55.0,103.9 60.0,95.3 70.0,95.3 75.0,103.9 70.0,112.6 60.0,112.6"/>
    <polygon points="70.0,95.3 75.0,86.6 85.0,86.6 90.0,95.3 85.0,103.9 75.0,103.9"/>
    <polygon points="85.0,103.9 90.0,95.3 100.0,95.3 105.0,103.9 100.0,112.6 90.0,112.6"/>
    <polygon points="100.0,95.3 105.0,86.6 115.0,86.6 120.0,95.3 115.0,103.9 105.0,103.9"/>
    <polygon points="115.0,103.9 120.0,95.3 130.0,95.3 135.0,103.9 130.0,112.6 120.0,112.6"/>
    <polygon points="130.0,95.3 135.0,86.6 145.0,86.6 150.0,95.3 145.0,103.9 135.0,103.9"/>
    <polygon points="145.0,103.9 150.0,95.3 160.0,95.3 165.0,103.9 160.0,112.6 150.0,112.6"/>
    <polygon points="-20.0,112.6 -15.0,103.9 -5.0,103.9 0.0,112.6 -5.0,121.2 -15.0,121.2"/>
    <polygon points="-5.0,121.2 0.0,112.6 10.0,112.6 15.0,121.2 10.0,129.9 0.0,129.9"/>
    <polygon points="10.0,112.6 15.0,103.9 25.0,103.9 30.0,112.6 25.0,121.2 15.0,121.2"/>
    <polygon points="25.0,121.2 30.0,112.6 40.0,112.6 45.0,121.2 40.0,129.9 30.0,129.9"/>
    <polygon points="40.0,112.6 45.0,103.9 55.0,103.9 60.0,112.6 55.0,121.2 45.0,121.2"/>
    <polygon points="55.0,121.2 60.0,112.6 70.0,112.6 75.0,121.2 70.0,129.9 60.0,129.9"/>
    <polygon points="70.0,112.6 75.0,103.9 85.0,103.9 90.0,112.6 85.0,121.2 75.0,121.2"/>
    <polygon points="85.0,121.2 90.0,112.6 100.0,112.6 105.0,121.2 100.0,129.9 90.0,129.9"/>
    <polygon points="100.0,112.6 105.0,103.9 115.0,103.9 120.0,112.6 115.0,121.2 105.0,121.2"/>
    <polygon points="115.0,121.2 120.0,112.6 130.0,112.6 135.0,121.2 130.0,129.9 120.0,129.9"/>
    <polygon points="130.0,112.6 135.0,103.9 145.0,103.9 150.0,112.6 145.0,121.2 135.0,121.2"/>
    <polygon points="145.0,121.2 150.0,112.6 160.0,112.6 165.0,121.2 160.0,129.9 150.0,129.9"/>
    <polygon points="-20.0,129.9 -15.0,121.2 -5.0,121.2 0.0,129.9 -5.0,138.6 -15.0,138.6"/>
    <polygon points="-5.0,138.6 0.0,129.9 10.0,129.9 15.0,138.6 10.0,147.2 0.0,147.2"/>
    <polygon points="10.0,129.9 15.0,121.2 25.0,121.2 30.0,129.9 25.0,138.6 15.0,138.6"/>
    <polygon points="25.0,138.6 30.0,129.9 40.0,129.9 45.0,138.6 40.0,147.2 30.0,147.2"/>
    <polygon points="40.0,129.9 45.0,121.2 55.0,121.2 60.0,129.9 55.0,138.6 45.0,138.6"/>
    <polygon points="55.0,138.6 60.0,129.9 70.0,129.9 75.0,138.6 70.0,147.2 60.0,147.2"/>
    <polygon points="70.0,129.9 75.0,121.2 85.0,121.2 90.0,129.9 85.0,138.6 75.0,138.6"/>
    <polygon points="85.0,138.6 90.0,129.9 100.0,129.9 105.0,138.6 100.0,147.2 90.0,147.2"/>
    <polygon points="100.0,129.9 105.0,121.2 115.0,121.2 120.0,129.9 115.0,138.6 105.0,138.6"/>
    <polygon points="115.0,138.6 120.0,129.9 130.0,129.9 135.0,138.6 130.0,147.2 120.0,147.2"/>
    <polygon points="130.0,129.9 135.0,121.2 145.0,121.2 150.0,129.9 145.0,138.6 135.0,138.6"/>
    <polygon points="145.0,138.6 150.0,129.9 160.0,129.9 165.0,138.6 160.0,147.2 150.0,147.2"/>
  </g>
</svg>
