<svg xmlns="http://www.w3.org/2000/svg" width="120" height="120" viewBox="0 0 120 120">
  <g fill="white" opacity="0.18">
    <rect x="0.0" y="0" width="0.8" height="120.0"/>
    <rect x="8.0" y="0" width="0.8" height="120.0"/>
    <rect x="16.0" y="0" width="0.8" height="120.0"/>
    <rect x="24.0" y="0" width="0.8" height="120.0"/>
    <rect x="32.0" y="0" width="0.8" height="120.0"/>
    <rect x="40.0" y="0" width="0.8" height="120.0"/>
    <rect x="48.0" y="0" width="0.8" height="120.0"/>
    <rect x="56.0" y="0" width="0.8" height="120.0"/>
    <rect x="64.0" y="0" width="0.8" height="120.0"/>
    <rect x="72.0" y="0" width="0.8" height="120.0"/>
    <rect x="80.0" y="0" width="0.8" height="120.0"/>
    <rect x="88.0" y="0" width="0.8" height="120.0"/>
    <rect x="96.0" y="0" width="0.8" height="120.0"/>
    <rect x="104.0" y="0" width="0.8" height="120.0"/>
    <rect x="112.0" y="0" width="0.8" height="120.0"/>
    <rect x="0" y="0.0" width="120.0" height="0.8"/>
    <rect x="0" y="8.0" width="120.0" height="0.8"/>
    <rect x="0" y="16.0" width="120.0" height="0.8"/>
    <rect x="0" y="24.0" width="120.0" height="0.8"/>
    <rect x="0" y="32.0" width="120.0" height="0.8"/>
    <rect x="0" y="40.0" width="120.0" height="0.8"/>
    <rect x="0" y="48.0" width="120.0" height="0.8"/>
    <rect x="0" y="56.0" width="120.0" height="0.8"/>
    <rect x="0" y="64.0" width="120.0" height="0.8"/>
    <rect x="0" y="72.0" width="120.0" height="0.8"/>
    <rect x="0" y="80.0" width="120.0" height="0.8"/>
    <rect x="0" y="88.0" width="120.0" height="0.8"/>
    <rect x="0" y="96.0" width="120.0" height="0.8"/>
    <rect x="0" y="104.0" width="120.0" height="0.8"/>
    <rect x="0" y="112.0" width="120.0" height="0.8"/>
  </g>
</svg>
