<svg xmlns="http://www.w3.org/2000/svg" width="120" height="120" viewBox="0 0 120 120">
  <g fill="none" stroke="white" stroke-width="1.2" opacity="0.15">
    <path d="M -32.0,0.0 A 16.0,15.0 0 0 1 0.0,0.0"/>
    <path d="M 0.0,0.0 A 16.0,15.0 0 0 1 32.0,0.0"/>
    <path d="M 32.0,0.0 A 16.0,15.0 0 0 1 64.0,0.0"/>
    <path d="M 64.0,0.0 A 16.0,15.0 0 0 1 96.0,0.0"/>
    <path d="M 96.0,0.0 A 16.0,15.0 0 0 1 128.0,0.0"/>
    <path d="M 128.0,0.0 A 16.0,15.0 0 0 1 160.0,0.0"/>
    <path d="M -48.0,15.0 A 16.0,15.0 0 0 1 -16.0,15.0"/>
    <path d="M -16.0,15.0 A 16.0,15.0 0 0 1 16.0,15.0"/>
    <path d="M 16.0,15.0 A 16.0,15.0 0 0 1 48.0,15.0"/>
    <path d="M 48.0,15.0 A 16.0,15.0 0 0 1 80.0,15.0"/>
    <path d="M 80.0,15.0 A 16.0,15.0 0 0 1 112.0,15.0"/>
    <path d="M 112.0,15.0 A 16.0,15.0 0 0 1 144.0,15.0"/>
    <path d="M -32.0,30.0 A 16.0,15.0 0 0 1 0.0,30.0"/>
    <path d="M 0.0,30.0 A 16.0,15.0 0 0 1 32.0,30.0"/>
    <path d="M 32.0,30.0 A 16.0,15.0 0 0 1 64.0,30.0"/>
    <path d="M 64.0,30.0 A 16.0,15.0 0 0 1 96.0,30.0"/>
    <path d="M 96.0,30.0 A 16.0,15.0 0 0 1 128.0,30.0"/>
    <path d="M 128.0,30.0 A 16.0,15.0 0 0 1 160.0,30.0"/>
    <path d="M -48.0,45.0 A 16.0,15.0 0 0 1 -16.0,45.0"/>
    <path d="M -16.0,45.0 A 16.0,15.0 0 0 1 16.0,45.0"/>
    <path d="M 16.0,45.0 A 16.0,15.0 0 0 1 48.0,45.0"/>
    <path d="M 48.0,45.0 A 16.0,15.0 0 0 1 80.0,45.0"/>
    <path d="M 80.0,45.0 A 16.0,15.0 0 0 1 112.0,45.0"/>
    <path d="M 112.0,45.0 A 16.0,15.0 0 0 1 144.0,45.0"/>
    <path d="M -32.0,60.0 A 16.0,15.0 0 0 1 0.0,60.0"/>
    <path d="M 0.0,60.0 A 16.0,15.0 0 0 1 32.0,60.0"/>
    <path d="M 32.0,60.0 A 16.0,15.0 0 0 1 64.0,60.0"/>
    <path d="M 64.0,60.0 A 16.0,15.0 0 0 1 96.0,60.0"/>
    <path d="M 96.0,60.0 A 16.0,15.0 0 0 1 128.0,60.0"/>
    <path d="M 128.0,60.0 A 16.0,15.0 0 0 1 160.0,60.0"/>
    <path d="M -48.0,75.0 A 16.0,15.0 0 0 1 -16.0,75.0"/>
    <path d="M -16.0,75.0 A 16.0,15.0 0 0 1 16.0,75.0"/>
    <path d="M 16.0,75.0 A 16.0,15.0 0 0 1 48.0,75.0"/>
    <path d="M 48.0,75.0 A 16.0,15.0 0 0 1 80.0,75.0"/>
    <path d="M 80.0,75.0 A 16.0,15.0 0 0 1 112.0,75.0"/>
    <path d="M 112.0,75.0 A 16.0,15.0 0 0 1 144.0,75.0"/>
    <path d="M -32.0,90.0 A 16.0,15.0 0 0 1 0.0,90.0"/>
    <path d="M 0.0,90.0 A 16.0,15.0 0 0 1 32.0,90.0"/>
    <path d="M 32.0,90.0 A 16.0,15.0 0 0 1 64.0,90.0"/>
    <path d="M 64.0,90.0 A 16.0,15.0 0 0 1 96.0,90.0"/>
    <path d="M 96.0,90.0 A 16.0,15.0 0 0 1 128.0,90.0"/>
    <path d="M 128.0,90.0 A 16.0,15.0 0 0 1 160.0,90.0"/>
    <path d="M -48.0,105.0 A 16.0,15.0 0 0 1 -16.0,105.0"/>
    <path d="M -16.0,105.0 A 16.0,15.0 0 0 1 16.0,105.0"/>
    <path d="M 16.0,105.0 A 16.0,15.0 0 0 1 48.0,105.0"/>
    <path d="M 48.0,105.0 A 16.0,15.0 0 0 1 80.0,105.0"/>
    <path d="M 80.0,105.0 A 16.0,15.0 0 0 1 112.0,105.0"/>
    <path d="M 112.0,105.0 A 16.0,15.0 0 0 1 144.0,105.0"/>
    <path d="M -32.0,120.0 A 16.0,15.0 0 0 1 0.0,120.0"/>
    <path d="M 0.0,120.0 A 16.0,15.0 0 0 1 32.0,120.0"/>
    <path d="M 32.0,120.0 A 16.0,15.0 0 0 1 64.0,120.0"/>
    <path d="M 64.0,120.0 A 16.0,15.0 0 0 1 96.0,120.0"/>
    <path d="M 96.0,120.0 A 16.0,15.0 0 0 1 128.0,120.0"/>
    <path d="M 128.0,120.0 A 16.0,15.0 0 0 1 160.0,120.0"/>
  </g>
</svg>
